<?xml version="1.0" encoding="UTF-8" standalone="no"?>
<!-- Created with Inkscape (http://www.inkscape.org/) -->

<svg
   xmlns:dc="http://purl.org/dc/elements/1.1/"
   xmlns:cc="http://creativecommons.org/ns#"
   xmlns:rdf="http://www.w3.org/1999/02/22-rdf-syntax-ns#"
   xmlns:svg="http://www.w3.org/2000/svg"
   xmlns="http://www.w3.org/2000/svg"
   xmlns:xlink="http://www.w3.org/1999/xlink"
   xmlns:sodipodi="http://sodipodi.sourceforge.net/DTD/sodipodi-0.dtd"
   xmlns:inkscape="http://www.inkscape.org/namespaces/inkscape"
   width="744.09448819"
   height="1052.3622047"
   id="svg2"
   version="1.1"
   inkscape:version="0.48.4 r9939"
   sodipodi:docname="New document 1">
  <defs
     id="defs4">
    <linearGradient
       id="linearGradient2993">
      <stop
         style="stop-color:#000000;stop-opacity:1;"
         offset="0"
         id="stop2995" />
      <stop
         id="stop3003"
         offset="0.72222221"
         style="stop-color:#000000;stop-opacity:0.38738739;" />
      <stop
         style="stop-color:#000000;stop-opacity:0;"
         offset="1"
         id="stop2997" />
    </linearGradient>
    <radialGradient
       inkscape:collect="always"
       xlink:href="#linearGradient2993"
       id="radialGradient3001"
       cx="197.43938"
       cy="340.57739"
       fx="197.43938"
       fy="340.57739"
       r="155.56349"
       gradientUnits="userSpaceOnUse"
       gradientTransform="matrix(1.012987,-0.03246745,0.03307623,1.0320193,127.13256,-19.00958)" />
  </defs>
  <sodipodi:namedview
     id="base"
     pagecolor="#ffffff"
     bordercolor="#666666"
     borderopacity="1.0"
     inkscape:pageopacity="0.0"
     inkscape:pageshadow="2"
     inkscape:zoom="0.35"
     inkscape:cx="-40.057528"
     inkscape:cy="612.11173"
     inkscape:document-units="px"
     inkscape:current-layer="layer1"
     showgrid="false"
     inkscape:snap-global="true"
     inkscape:snap-bbox="true"
     inkscape:bbox-paths="true"
     inkscape:bbox-nodes="true"
     inkscape:snap-bbox-midpoints="true"
     inkscape:snap-bbox-edge-midpoints="true"
     inkscape:window-width="1600"
     inkscape:window-height="837"
     inkscape:window-x="-8"
     inkscape:window-y="-8"
     inkscape:window-maximized="1" />
  <metadata
     id="metadata7">
    <rdf:RDF>
      <cc:Work
         rdf:about="">
        <dc:format>image/svg+xml</dc:format>
        <dc:type
           rdf:resource="http://purl.org/dc/dcmitype/StillImage" />
        <dc:title></dc:title>
      </cc:Work>
    </rdf:RDF>
  </metadata>
  <g
     inkscape:label="Layer 1"
     inkscape:groupmode="layer"
     id="layer1">
    <path
       sodipodi:type="star"
       style="fill:#5f5f6e;fill-opacity:1;fill-rule:nonzero;stroke:none"
       id="path2985"
       sodipodi:sides="66"
       sodipodi:cx="340.42142"
       sodipodi:cy="344.24524"
       sodipodi:r1="277.79886"
       sodipodi:r2="213.2955"
       sodipodi:arg1="0.84972335"
       sodipodi:arg2="1.2200669"
       inkscape:flatsided="false"
       inkscape:rounded="0"
       inkscape:randomized="0"
       d="m 523.82171,552.89935 -110.1156,-8.34354 89.45132,24.83204 -108.82389,-18.77291 86.68584,33.22249 -106.54665,-29.03227 83.13533,41.31207 -103.30451,-39.02872 78.83192,49.02752 -99.12681,-48.67171 73.81459,56.29897 -94.05142,-57.87392 68.12881,63.06056 -88.12429,-66.55202 61.82602,69.25108 -81.39907,-74.62742 54.96333,74.81445 -73.93671,-82.02697 47.6029,79.70027 -65.80477,-88.68368 39.81136,83.86433 -57.07688,-94.53725 31.65928,87.26889 -47.83209,-99.53468 23.22048,89.88314 -38.15413,-103.63071 14.5714,91.68338 -28.13063,-106.78824 5.79036,92.65334 -17.85239,-108.97868 -3.04312,92.7842 -7.41247,-110.1822 -11.84904,92.07481 3.09458,-110.38789 -20.54766,90.53156 13.5736,-109.59388 -29.06018,88.16845 23.9297,-107.80738 L 94.410681,473.2837 128.47977,368.23914 83.258752,449.31459 127.15869,347.98416 74.435727,424.39397 127.76895,327.69532 68.02151,398.7475 130.30503,307.55636 64.074189,372.60745 134.74395,287.74966 62.629511,346.21055 141.04552,268.45459 63.700559,319.79585 149.15267,249.84589 67.277634,293.60257 158.99198,232.09209 73.328342,267.86792 170.47434,215.35396 81.797886,242.82495 183.49577,199.78309 92.609565,218.70046 197.93834,185.5205 l -92.27287,10.19242 108.00579,-23.01758 -92.82391,1.37518 109.7047,-12.64676 -92.53431,-7.45452 110.41009,-2.1614 -91.40671,-16.21671 110.11561,8.34354 -89.45132,-24.83204 108.82389,18.77291 -86.68585,-33.22249 106.54665,29.03227 -83.13532,-41.312067 103.3045,39.028717 -78.83192,-49.027519 99.12682,48.671709 -73.8146,-56.298969 94.05142,57.873919 -68.1288,-63.060563 88.12428,66.552023 -61.82602,-69.25108 81.39908,74.62741 -54.96334,-74.814437 73.93671,82.026967 -47.60289,-79.700269 65.80476,88.683679 -39.81135,-83.864329 57.07687,94.537249 -31.65927,-87.268891 47.83209,99.534681 -23.22049,-89.883137 38.15413,103.630707 -14.5714,-91.68339 28.13064,106.78825 -5.79036,-92.65334 17.85239,108.97868 3.04312,-92.7842 7.41247,110.18219 11.84903,-92.0748 -3.09457,110.38788 20.54765,-90.53155 -13.5736,109.59388 29.06018,-88.16845 -23.9297,107.80738 37.30954,-85.00687 -34.06908,105.04456 45.22101,-81.07546 -43.89993,101.33044 52.72296,-76.40981 -53.33323,96.69865 59.74744,-71.05218 -62.28351,91.19114 66.23084,-65.05109 -70.66977,84.85779 72.11444,-58.46089 -78.41601,77.75596 77.34497,-51.34126 -85.45212,69.94996 81.87504,-43.75668 -91.71434,61.51048 85.66363,-35.77583 -97.146,52.51396 88.67646,-27.47099 -101.69788,43.04186 90.8862,-18.91737 -105.32878,33.17996 92.27288,-10.19242 -108.0058,23.01758 92.82391,-1.37518 -109.7047,12.64676 92.53432,7.45452 -110.4101,2.1614 z"
       transform="matrix(0.91257588,0,0,0.91257588,-55.701469,-54.190376)" />
    <path
       sodipodi:type="star"
       style="fill:#373746;fill-opacity:1;fill-rule:nonzero;stroke:none"
       id="path2987"
       sodipodi:sides="66"
       sodipodi:cx="339.41125"
       sodipodi:cy="336.16403"
       sodipodi:r1="228.77036"
       sodipodi:r2="175.48299"
       sodipodi:arg1="0.74479733"
       sodipodi:arg2="1.0264726"
       inkscape:flatsided="false"
       inkscape:rounded="0"
       inkscape:randomized="0"
       d="m 507.60901,491.2298 -77.3257,-4.94399 61.82415,20.23005 -76.50561,-12.27187 59.62121,26.0152 -74.99266,-19.48863 56.87834,31.56477 -72.80058,-26.52889 53.62037,36.82847 -69.94921,-33.3289 49.87681,41.75864 -66.46435,-39.82707 45.68154,46.31065 -62.37759,-45.96458 41.07259,50.44326 -57.72593,-51.68581 36.09167,54.11904 -52.5515,-56.93897 30.78391,57.30472 -46.90115,-61.67648 25.19736,59.97143 -40.82605,-65.85544 19.38261,62.09504 -34.38123,-69.43801 13.39233,63.65631 -27.62504,-72.39174 7.28077,64.64109 -20.61868,-74.68987 1.10328,65.04047 -13.4256,-76.3116 -5.0842,64.85084 -6.11093,-77.24224 -11.22564,64.07391 1.25908,-77.47336 -17.26543,62.71671 8.6177,-77.00287 -23.14885,60.79153 15.89826,-75.83503 -28.82263,58.31583 23.03484,-73.98042 -34.23539,55.31201 29.96283,-71.45583 -39.33811,51.80727 36.61947,-68.28412 -44.08458,47.83335 42.94446,-64.49402 -48.43181,43.42626 48.88056,-60.11987 -52.34043,38.62589 54.37398,-55.20124 -55.77506,33.47571 59.37498,-49.78271 -58.70457,28.02237 63.83827,-43.91334 -61.10245,22.31526 67.72344,-37.64628 -62.94698,16.40605 70.99529,-31.03829 -64.22144,10.34828 73.6242,-24.14922 -64.91431,4.19678 75.58635,-17.04144 -65.0193,-1.99272 76.86398,-9.77934 -64.53547,-8.16417 77.44552,-2.42868 -63.4672,-14.26168 77.3257,4.94398 -61.82415,-20.23005 76.50561,12.27188 -59.62121,-26.01521 74.99266,19.48863 -56.87834,-31.56476 72.80058,26.52888 -53.62037,-36.82846 69.9492,33.3289 -49.8768,-41.75865 66.46435,39.82708 -45.68154,-46.31065 62.37759,45.96457 -41.07259,-50.44325 57.72593,51.68581 -36.09167,-54.11905 52.5515,56.93897 -30.78391,-57.30472 46.90115,61.67649 -25.19736,-59.97144 40.82605,65.85545 -19.38261,-62.09505 34.38123,69.43802 -13.39233,-63.65631 27.62504,72.39173 -7.28077,-64.64109 20.61868,74.68987 -1.10328,-65.04047 13.4256,76.3116 5.0842,-64.85084 6.11093,77.24224 11.22564,-64.0739 -1.25908,77.47336 17.26543,-62.71671 -8.6177,77.00287 23.14885,-60.79154 -15.89826,75.83503 28.82263,-58.31583 -23.03484,73.98042 34.23539,-55.31201 -29.96283,71.45583 39.33811,-51.80727 -36.61947,68.28413 44.08458,-47.83336 -42.94446,64.49403 48.43181,-43.42626 -48.88056,60.11986 52.34043,-38.62589 -54.37398,55.20125 55.77506,-33.47571 -59.37498,49.78271 58.70457,-28.02237 -63.83827,43.91334 61.10245,-22.31526 -67.72344,37.64628 62.94698,-16.40606 -70.99529,31.0383 64.22144,-10.34828 -73.6242,24.14922 64.91431,-4.19679 -75.58635,17.04145 65.0193,1.99271 -76.86398,9.77935 64.53547,8.16417 -77.44552,2.42867 z"
       transform="matrix(0.83269141,0,0,0.83269141,269.64357,477.20658)" />
    <path
       sodipodi:type="arc"
       style="fill:url(#radialGradient3001);fill-opacity:1;fill-rule:nonzero;stroke:none"
       id="path2991"
       sodipodi:cx="340.42142"
       sodipodi:cy="321.01175"
       sodipodi:rx="155.56349"
       sodipodi:ry="155.56349"
       d="m 495.98491,321.01175 a 155.56349,155.56349 0 1 1 -311.12698,0 155.56349,155.56349 0 1 1 311.12698,0 z"
       transform="translate(-165.61331,562.23478)" />
  </g>
</svg>
